<svg width="92" height="31" viewBox="0 0 92 31" fill="none" xmlns="http://www.w3.org/2000/svg">
<path d="M0.797498 29.244L4.1095 28.704V2.496L0.797498 1.992V1.2H14.5855C17.2255 1.2 19.5655 1.8 21.6055 3C23.6695 4.176 25.2775 5.856 26.4295 8.04C27.5815 10.2 28.1575 12.72 28.1575 15.6C28.1575 18.48 27.5815 21.012 26.4295 23.196C25.2775 25.356 23.6695 27.036 21.6055 28.236C19.5415 29.412 17.2015 30 14.5855 30H0.797498V29.244ZM14.5855 29.136C16.3375 29.136 17.8855 28.728 19.2295 27.912C20.5975 27.096 21.6655 25.884 22.4335 24.276C23.2015 22.644 23.5855 20.676 23.5855 18.372V12.828C23.5855 10.524 23.2015 8.568 22.4335 6.96C21.6655 5.352 20.5975 4.14 19.2295 3.324C17.8855 2.508 16.3375 2.1 14.5855 2.1H8.0695V29.136H14.5855ZM44.0161 30.72C41.7841 30.72 39.5881 30.084 37.4281 28.812L34.3681 30.36H33.5761V21.108H34.3681L37.4641 27.804C39.4561 29.22 41.7361 29.928 44.3041 29.928C46.4161 29.928 48.1561 29.376 49.5241 28.272C50.9161 27.144 51.6121 25.572 51.6121 23.556C51.6121 22.092 51.1681 20.94 50.2801 20.1C49.3921 19.236 47.9521 18.552 45.9601 18.048L39.9841 16.5C37.8961 15.948 36.3241 15.012 35.2681 13.692C34.2121 12.348 33.6841 10.764 33.6841 8.94C33.6841 7.284 34.0081 5.82 34.6561 4.548C35.3281 3.252 36.3001 2.256 37.5721 1.56C38.8441 0.839998 40.3561 0.479998 42.1081 0.479998C44.2921 0.479998 46.2481 0.851998 47.9761 1.596L50.6041 0.479998H51.3961V7.824H50.6041L48.0121 2.568C46.2121 1.704 44.2561 1.272 42.1441 1.272C40.0561 1.272 38.4121 1.812 37.2121 2.892C36.0121 3.948 35.4121 5.352 35.4121 7.104C35.4121 8.4 35.8321 9.42 36.6721 10.164C37.5361 10.908 38.7961 11.496 40.4521 11.928L46.8961 13.62C48.9841 14.148 50.5321 15.06 51.5401 16.356C52.5721 17.628 53.0881 19.572 53.0881 22.188C53.0881 24.852 52.2601 26.94 50.6041 28.452C48.9721 29.964 46.7761 30.72 44.0161 30.72ZM72.6366 30.36L61.9086 2.496V27.804L65.3646 29.244V30H57.6606V29.244L61.0446 27.804V2.496L57.7326 1.992V1.2H65.6886L74.7246 24.312L83.9406 1.2H91.2126V1.992L87.9006 2.496V28.704L91.2126 29.244V30H80.6286V29.244L83.9406 28.704V3.576L73.2846 30.36H72.6366Z" fill="white"/>
</svg>
