<svg width="92" height="31" fill="none" xmlns="http://www.w3.org/2000/svg"><path d="M.797 29.244l3.312-.54V2.496L.797 1.992V1.2h13.788c2.64 0 4.98.6 7.02 1.8 2.064 1.176 3.672 2.856 4.825 5.04 1.151 2.16 1.727 4.68 1.727 7.56s-.576 5.412-1.727 7.596c-1.152 2.16-2.76 3.84-4.825 5.04C19.541 29.412 17.201 30 14.585 30H.797v-.756zm13.788-.108c1.752 0 3.3-.408 4.645-1.224 1.367-.816 2.436-2.028 3.203-3.636.768-1.632 1.152-3.6 1.152-5.904v-5.544c0-2.304-.384-4.26-1.152-5.868-.767-1.608-1.835-2.82-3.203-3.636-1.345-.816-2.893-1.224-4.645-1.224H8.07v27.036h6.516zm29.431 1.584c-2.232 0-4.428-.636-6.588-1.908l-3.06 1.548h-.792v-9.252h.792l3.096 6.696c1.992 1.416 4.272 2.124 6.84 2.124 2.112 0 3.852-.552 5.22-1.656 1.392-1.128 2.088-2.7 2.088-4.716 0-1.464-.444-2.616-1.332-3.456-.888-.864-2.328-1.548-4.32-2.052L39.984 16.5c-2.088-.552-3.66-1.488-4.716-2.808-1.056-1.344-1.584-2.928-1.584-4.752 0-1.656.324-3.12.972-4.392a7.007 7.007 0 012.916-2.988C38.844.84 40.356.48 42.108.48c2.184 0 4.14.372 5.868 1.116L50.604.48h.792v7.344h-.792l-2.592-5.256c-1.8-.864-3.756-1.296-5.868-1.296-2.088 0-3.732.54-4.932 1.62-1.2 1.056-1.8 2.46-1.8 4.212 0 1.296.42 2.316 1.26 3.06.864.744 2.124 1.332 3.78 1.764l6.444 1.692c2.088.528 3.636 1.44 4.644 2.736 1.032 1.272 1.548 3.216 1.548 5.832 0 2.664-.828 4.752-2.484 6.264-1.632 1.512-3.828 2.268-6.588 2.268zm28.62-.36L61.91 2.496v25.308l3.456 1.44V30H57.66v-.756l3.384-1.44V2.496l-3.312-.504V1.2h7.956l9.036 23.112L83.94 1.2h7.272v.792l-3.312.504v26.208l3.312.54V30H80.629v-.756l3.312-.54V3.576L73.285 30.36h-.648z" fill="#fff"/></svg>